<mxfile host="65bd71144e">
    <diagram id="-3UejwGHWPZfdWo38CqX" name="Page-2">
        <mxGraphModel dx="1176" dy="531" grid="0" gridSize="10" guides="1" tooltips="1" connect="1" arrows="1" fold="1" page="1" pageScale="1" pageWidth="1169" pageHeight="827" background="#ffffff" math="0" shadow="0">
            <root>
                <mxCell id="0"/>
                <mxCell id="1" parent="0"/>
                <mxCell id="FfZY1LqCqvuB5U5M8taV-1" value="AWS Cloud" style="points=[[0,0],[0.25,0],[0.5,0],[0.75,0],[1,0],[1,0.25],[1,0.5],[1,0.75],[1,1],[0.75,1],[0.5,1],[0.25,1],[0,1],[0,0.75],[0,0.5],[0,0.25]];outlineConnect=0;gradientColor=none;html=1;whiteSpace=wrap;fontSize=16;fontStyle=1;container=1;pointerEvents=0;collapsible=0;recursiveResize=0;shape=mxgraph.aws4.group;grIcon=mxgraph.aws4.group_aws_cloud_alt;strokeColor=#232F3E;fillColor=none;verticalAlign=top;align=left;spacingLeft=30;fontColor=#232F3E;dashed=0;strokeWidth=3;" parent="1" vertex="1">
                    <mxGeometry x="98" y="160" width="893.08" height="429" as="geometry"/>
                </mxCell>
                <mxCell id="FfZY1LqCqvuB5U5M8taV-3" value="&lt;font color=&quot;#000000&quot; style=&quot;&quot;&gt;VPC (192.168.0.0/16)&lt;/font&gt;" style="points=[[0,0],[0.25,0],[0.5,0],[0.75,0],[1,0],[1,0.25],[1,0.5],[1,0.75],[1,1],[0.75,1],[0.5,1],[0.25,1],[0,1],[0,0.75],[0,0.5],[0,0.25]];outlineConnect=0;gradientColor=none;html=1;whiteSpace=wrap;fontSize=16;fontStyle=1;container=1;pointerEvents=0;collapsible=0;recursiveResize=0;shape=mxgraph.aws4.group;grIcon=mxgraph.aws4.group_vpc;strokeColor=#248814;fillColor=none;verticalAlign=top;align=left;spacingLeft=30;fontColor=#AAB7B8;dashed=0;strokeWidth=3;" parent="FfZY1LqCqvuB5U5M8taV-1" vertex="1">
                    <mxGeometry x="39" y="63" width="800" height="331" as="geometry"/>
                </mxCell>
                <mxCell id="FfZY1LqCqvuB5U5M8taV-4" value="Public subnet (192.168.10.0/24)" style="points=[[0,0],[0.25,0],[0.5,0],[0.75,0],[1,0],[1,0.25],[1,0.5],[1,0.75],[1,1],[0.75,1],[0.5,1],[0.25,1],[0,1],[0,0.75],[0,0.5],[0,0.25]];outlineConnect=0;gradientColor=none;html=1;whiteSpace=wrap;fontSize=16;fontStyle=0;container=1;pointerEvents=0;collapsible=0;recursiveResize=0;shape=mxgraph.aws4.group;grIcon=mxgraph.aws4.group_security_group;grStroke=0;strokeColor=#248814;fillColor=#E9F3E6;verticalAlign=top;align=left;spacingLeft=30;fontColor=#248814;dashed=0;strokeWidth=3;" parent="FfZY1LqCqvuB5U5M8taV-3" vertex="1">
                    <mxGeometry x="315" y="42.5" width="435" height="246" as="geometry"/>
                </mxCell>
                <mxCell id="FfZY1LqCqvuB5U5M8taV-5" value="Server01" style="sketch=0;points=[[0,0,0],[0.25,0,0],[0.5,0,0],[0.75,0,0],[1,0,0],[0,1,0],[0.25,1,0],[0.5,1,0],[0.75,1,0],[1,1,0],[0,0.25,0],[0,0.5,0],[0,0.75,0],[1,0.25,0],[1,0.5,0],[1,0.75,0]];outlineConnect=0;fontColor=#232F3E;gradientColor=#F78E04;gradientDirection=north;fillColor=#D05C17;strokeColor=#ffffff;dashed=0;verticalLabelPosition=bottom;verticalAlign=top;align=center;html=1;fontSize=20;fontStyle=1;aspect=fixed;shape=mxgraph.aws4.resourceIcon;resIcon=mxgraph.aws4.ec2;labelPosition=center;" parent="FfZY1LqCqvuB5U5M8taV-4" vertex="1">
                    <mxGeometry x="307" y="98" width="50" height="50" as="geometry"/>
                </mxCell>
                <mxCell id="FfZY1LqCqvuB5U5M8taV-6" value="Ansible Server" style="sketch=0;points=[[0,0,0],[0.25,0,0],[0.5,0,0],[0.75,0,0],[1,0,0],[0,1,0],[0.25,1,0],[0.5,1,0],[0.75,1,0],[1,1,0],[0,0.25,0],[0,0.5,0],[0,0.75,0],[1,0.25,0],[1,0.5,0],[1,0.75,0]];outlineConnect=0;fontColor=#232F3E;gradientColor=#F78E04;gradientDirection=north;fillColor=#D05C17;strokeColor=#ffffff;dashed=0;verticalLabelPosition=bottom;verticalAlign=top;align=center;html=1;fontSize=20;fontStyle=1;aspect=fixed;shape=mxgraph.aws4.resourceIcon;resIcon=mxgraph.aws4.ec2;" parent="FfZY1LqCqvuB5U5M8taV-4" vertex="1">
                    <mxGeometry x="101" y="98" width="50" height="50" as="geometry"/>
                </mxCell>
                <mxCell id="FfZY1LqCqvuB5U5M8taV-7" style="edgeStyle=none;html=1;entryX=0;entryY=0.5;entryDx=0;entryDy=0;entryPerimeter=0;strokeColor=#000000;strokeWidth=3;exitX=1;exitY=0.5;exitDx=0;exitDy=0;exitPerimeter=0;" parent="FfZY1LqCqvuB5U5M8taV-4" source="FfZY1LqCqvuB5U5M8taV-6" target="FfZY1LqCqvuB5U5M8taV-5" edge="1">
                    <mxGeometry relative="1" as="geometry">
                        <mxPoint x="65" y="110" as="targetPoint"/>
                    </mxGeometry>
                </mxCell>
                <mxCell id="FfZY1LqCqvuB5U5M8taV-8" value="SSH" style="edgeLabel;html=1;align=center;verticalAlign=middle;resizable=0;points=[];fontSize=20;labelBackgroundColor=none;fontColor=#000000;fontStyle=1" parent="FfZY1LqCqvuB5U5M8taV-7" vertex="1" connectable="0">
                    <mxGeometry x="0.4545" y="-1" relative="1" as="geometry">
                        <mxPoint x="-37" y="-20" as="offset"/>
                    </mxGeometry>
                </mxCell>
                <mxCell id="FfZY1LqCqvuB5U5M8taV-9" value="" style="shape=image;verticalLabelPosition=bottom;labelBackgroundColor=default;verticalAlign=top;aspect=fixed;imageAspect=0;image=https://upload.wikimedia.org/wikipedia/commons/thumb/2/24/Ansible_logo.svg/832px-Ansible_logo.svg.png;" parent="FfZY1LqCqvuB5U5M8taV-4" vertex="1">
                    <mxGeometry x="72" y="63" width="36.6" height="45" as="geometry"/>
                </mxCell>
            </root>
        </mxGraphModel>
    </diagram>
</mxfile>